<svg width="48" height="42" viewBox="0 0 48 42" fill="none" xmlns="http://www.w3.org/2000/svg">
<path d="M5.33242 4.66641H12.332L16.9984 0H30.9977L35.6641 4.66641H42.6637C43.9013 4.66641 45.0882 5.15804 45.9633 6.03317C46.8384 6.90829 47.3301 8.09521 47.3301 9.33281V37.3313C47.3301 38.5689 46.8384 39.7558 45.9633 40.6309C45.0882 41.506 43.9013 41.9977 42.6637 41.9977H5.33242C4.09481 41.9977 2.90789 41.506 2.03277 40.6309C1.15765 39.7558 0.666016 38.5689 0.666016 37.3313V9.33281C0.666016 8.09521 1.15765 6.90829 2.03277 6.03317C2.90789 5.15804 4.09481 4.66641 5.33242 4.66641ZM23.998 11.666C20.904 11.666 17.9367 12.8951 15.7489 15.0829C13.5611 17.2707 12.332 20.238 12.332 23.332C12.332 26.4261 13.5611 29.3933 15.7489 31.5812C17.9367 33.769 20.904 34.9981 23.998 34.9981C27.0921 34.9981 30.0594 33.769 32.2472 31.5812C34.435 29.3933 35.6641 26.4261 35.6641 23.332C35.6641 20.238 34.435 17.2707 32.2472 15.0829C30.0594 12.8951 27.0921 11.666 23.998 11.666ZM23.998 16.3324C25.8545 16.3324 27.6348 17.0699 28.9475 18.3826C30.2602 19.6952 30.9977 21.4756 30.9977 23.332C30.9977 25.1884 30.2602 26.9688 28.9475 28.2815C27.6348 29.5942 25.8545 30.3316 23.998 30.3316C22.1416 30.3316 20.3613 29.5942 19.0486 28.2815C17.7359 26.9688 16.9984 25.1884 16.9984 23.332C16.9984 21.4756 17.7359 19.6952 19.0486 18.3826C20.3613 17.0699 22.1416 16.3324 23.998 16.3324Z" fill="#3D37B3"/>
</svg>
