<svg width="50" height="50" viewBox="0 0 50 50" fill="none" xmlns="http://www.w3.org/2000/svg">
<path d="M25.366 47.936C12.4606 47.8639 2 37.652 2 24.968C2 12.284 12.4606 2 25.366 2C33.5757 2 40.6962 6.52645 44.964 12.4581C46.991 15.2747 48.86 19.254 47.614 25.2391C46.3704 31.2242 40.2224 35.0481 36.7666 35.0481H31.1633C26.3185 35.0481 25.8596 39.6081 27.8866 41.7582C29.7892 43.7764 28.3977 47.9535 25.366 47.936Z" stroke="#3D37B3" stroke-width="2.48706" stroke-linecap="round" stroke-linejoin="round"/>
<path d="M14.9769 21.0282C14.9771 21.5525 14.8739 22.0717 14.6734 22.5561C14.4729 23.0406 14.1789 23.4808 13.8082 23.8516C13.4375 24.2224 12.9974 24.5165 12.513 24.7172C12.0286 24.9179 11.5095 25.0212 10.9852 25.0212C9.92616 25.0212 8.91053 24.6005 8.1617 23.8517C7.41288 23.1028 6.99219 22.0872 6.99219 21.0282C6.99219 19.9692 7.41288 18.9536 8.1617 18.2047C8.91053 17.4559 9.92616 17.0352 10.9852 17.0352C11.5095 17.0352 12.0286 17.1385 12.513 17.3392C12.9974 17.5399 13.4375 17.834 13.8082 18.2048C14.1789 18.5756 14.4729 19.0158 14.6734 19.5002C14.8739 19.9847 14.9771 20.5039 14.9769 21.0282ZM43.0272 21.0282C43.0274 21.5526 42.9242 22.0719 42.7236 22.5564C42.523 23.041 42.2289 23.4812 41.8581 23.852C41.4873 24.2228 41.047 24.5169 40.5625 24.7176C40.078 24.9182 39.5587 25.0213 39.0343 25.0212C38.51 25.0213 37.9908 24.9182 37.5063 24.7177C37.0219 24.5171 36.5817 24.2231 36.2109 23.8525C35.8401 23.4818 35.5459 23.0417 35.3453 22.5573C35.1446 22.0729 35.0413 21.5537 35.0413 21.0294C35.041 20.505 35.144 19.9857 35.3444 19.5011C35.5449 19.0165 35.8389 18.5762 36.2096 18.2052C36.5803 17.8343 37.0204 17.5401 37.5049 17.3393C37.9893 17.1385 38.5086 17.0352 39.033 17.0352C39.5575 17.0349 40.077 17.1379 40.5616 17.3385C41.0463 17.539 41.4867 17.8331 41.8576 18.2039C42.2286 18.5748 42.5228 19.0151 42.7235 19.4997C42.9242 19.9843 43.0274 20.5037 43.0272 21.0282ZM35.5126 10.8126C35.5126 11.8716 35.0919 12.8872 34.3431 13.636C33.5942 14.3849 32.5786 14.8056 31.5196 14.8056C30.4606 14.8056 29.445 14.3849 28.6961 13.636C27.9473 12.8872 27.5266 11.8716 27.5266 10.8126C27.5265 10.2882 27.6296 9.76887 27.8302 9.28434C28.0308 8.79982 28.325 8.35957 28.6958 7.98876C29.0666 7.61794 29.5068 7.32383 29.9914 7.12322C30.4759 6.92261 30.9952 6.81944 31.5196 6.8196C32.0439 6.81944 32.5631 6.92257 33.0476 7.1231C33.532 7.32363 33.9722 7.61763 34.343 7.98832C34.7138 8.359 35.0079 8.7991 35.2086 9.28348C35.4093 9.76786 35.5126 10.2883 35.5126 10.8126ZM22.4916 10.8126C22.4916 11.8713 22.071 12.8866 21.3224 13.6352C20.5738 14.3838 19.5585 14.8043 18.4998 14.8043C17.71 14.8046 16.9378 14.5706 16.281 14.1319C15.6241 13.6932 15.1122 13.0696 14.8098 12.34C14.5074 11.6103 14.4282 10.8073 14.5823 10.0327C14.7363 9.25797 15.1166 8.54638 15.6751 7.98788C16.2336 7.42937 16.9452 7.04905 17.7199 6.89502C18.4946 6.74099 19.2975 6.82017 20.0272 7.12255C20.7569 7.42492 21.3805 7.9369 21.8191 8.59373C22.2578 9.25057 22.4918 10.0227 22.4916 10.8126Z" stroke="#3D37B3" stroke-width="1.8653" stroke-linecap="round" stroke-linejoin="round"/>
</svg>
