<svg width="36" height="50" viewBox="0 0 36 50" fill="none" xmlns="http://www.w3.org/2000/svg">
<path d="M33.4286 36.8571H26.7429C27.6 33.7714 32.5714 31.8 34.2 31.2C35.3143 30.7714 36 29.7429 36 28.5429C36 25.6286 34.1143 22.9714 31.2857 22.0286C28.8857 21.1714 26.4 20.8286 24.8571 20.6571C24 20.5714 23.3143 19.8857 23.2286 19.1143C25.2857 17.9143 26.9143 15.9429 27.7714 13.6286H28.2857C30.1714 13.6286 31.7143 12.0857 31.7143 10.2C31.7143 8.31429 30.1714 6.77143 28.2857 6.77143H27.6857C26.2286 2.82857 22.4571 0 18 0C13.5429 0 9.77143 2.82857 8.31429 6.85714H7.71429C5.82857 6.85714 4.28571 8.4 4.28571 10.2857C4.28571 12.1714 5.82857 13.7143 7.71429 13.7143H8.31429C9.17143 16.0286 10.7143 17.9143 12.8571 19.2C12.6857 20.0571 12.0857 20.6571 11.2286 20.7429C9.6 20.9143 7.11429 21.2571 4.62857 22.1143C1.88571 23.0571 0.0857146 25.6286 0.0857146 28.6286C0.0857146 29.8286 0.857143 30.8571 1.97143 31.2857C3.6 31.8857 8.57143 33.8571 9.42857 36.9429H2.57143C1.11429 36.9429 0 38.0571 0 39.5143C0 40.9714 1.11429 42.0857 2.57143 42.0857H12V44.6571H9.42857C7.02857 44.6571 5.14286 46.5429 5.14286 48.9429C5.14286 49.4571 5.48571 49.8 6 49.8H30C30.5143 49.8 30.8571 49.4571 30.8571 48.9429C30.8571 46.5429 28.9714 44.6571 26.5714 44.6571H24V42.0857H33.4286C34.8857 42.0857 36 40.9714 36 39.5143C36 38.0571 34.8857 36.8571 33.4286 36.8571ZM28.2857 8.57143C29.2286 8.57143 30 9.34286 30 10.2857C30 11.2286 29.2286 12 28.2857 12H28.1143C28.2 11.4 28.2857 10.8857 28.2857 10.2857C28.2857 9.68571 28.2 9.17143 28.1143 8.57143H28.2857ZM7.71429 12C6.77143 12 6 11.2286 6 10.2857C6 9.34286 6.77143 8.57143 7.71429 8.57143H7.88572C7.8 9.17143 7.71429 9.68571 7.71429 10.2857C7.71429 10.8857 7.8 11.4 7.88572 12H7.71429ZM9.42857 10.2857C9.42857 5.57143 13.2857 1.71429 18 1.71429C22.7143 1.71429 26.5714 5.57143 26.5714 10.2857C26.5714 15 22.7143 18.8571 18 18.8571C13.2857 18.8571 9.42857 15 9.42857 10.2857ZM2.4 29.5714C1.97143 29.4 1.71429 29.0571 1.71429 28.5429C1.71429 26.3143 3.08571 24.4286 5.14286 23.6571C7.45714 22.8857 9.77143 22.5429 11.4 22.3714C12.8571 22.2 14.0571 21.1714 14.4857 19.8857C15.6 20.3143 16.8 20.5714 18.0857 20.5714C19.3714 20.5714 20.5714 20.3143 21.6857 19.8857C22.1143 21.2571 23.2286 22.2857 24.7714 22.3714C26.3143 22.5429 28.6286 22.8857 30.8571 23.6571C33 24.3429 34.3714 26.3143 34.3714 28.5429C34.3714 28.9714 34.1143 29.4 33.6857 29.5714C30.6857 30.6857 25.7143 33 25.0286 36.8571H18H11.0571C10.4571 33 5.48571 30.6857 2.4 29.5714ZM28.9714 48H7.02857C7.37143 46.9714 8.31429 46.2857 9.42857 46.2857H12.8571H23.1429H26.5714C27.6857 46.2857 28.6286 46.9714 28.9714 48ZM22.2857 44.5714H13.7143V42H22.2857V44.5714ZM33.4286 40.2857H23.1429H12.8571H2.57143C2.05714 40.2857 1.71429 39.9429 1.71429 39.4286C1.71429 38.9143 2.05714 38.5714 2.57143 38.5714H10.2857H18H25.7143H33.4286C33.9429 38.5714 34.2857 38.9143 34.2857 39.4286C34.2857 39.9429 33.9429 40.2857 33.4286 40.2857Z" fill="#3D37B3"/>
</svg>
